<?xml version="1.0" encoding="iso-8859-1"?>
<!-- Generator: Adobe Illustrator 19.0.0, SVG Export Plug-In . SVG Version: 6.00 Build 0)  -->
<svg version="1.1" id="Layer_1" xmlns="http://www.w3.org/2000/svg" xmlns:xlink="http://www.w3.org/1999/xlink" x="0px" y="0px"
	 viewBox="0 0 512 512" style="enable-background:new 0 0 512 512;" xml:space="preserve">
<path style="fill:#FDBF00;" d="M290.069,133.969H221.93c-107.468,0-194.588,87.121-194.588,194.588v73.991h457.314v-73.99
	C484.657,221.089,397.537,133.969,290.069,133.969z"/>
<path style="fill:#E5A900;" d="M290.069,133.969h-31.085c107.468,0,194.588,87.12,194.588,194.588v73.991h31.085v-73.99
	C484.657,221.089,397.537,133.969,290.069,133.969z"/>
<g>
	<path style="fill:#FECE00;" d="M322.289,308.315c0.349,0.045,0.696,0.067,1.039,0.067c4.066,0,7.592-3.025,8.116-7.164
		L351.36,143.83c-5.192-1.722-10.481-3.228-15.857-4.515c-0.095,0.355-0.175,0.716-0.223,1.091l-20.09,158.756
		C314.622,303.649,317.801,307.747,322.289,308.315z"/>
	<path style="fill:#FECE00;" d="M180.557,301.217c0.523,4.139,4.05,7.164,8.116,7.164c0.342,0,0.689-0.022,1.039-0.067
		c4.488-0.568,7.667-4.666,7.098-9.154l-20.115-158.958c-0.038-0.305-0.097-0.603-0.167-0.896
		c-5.385,1.288-10.684,2.797-15.886,4.521L180.557,301.217z"/>
	<path style="fill:#FECE00;" d="M298.947,109.451h-85.893c-13.483,0-23.917,11.633-22.25,24.809l20.586,162.695
		c2.453,17.223,17.415,30.034,35.076,30.034h19.069c17.661,0,32.623-12.812,35.076-30.034l20.586-162.695
		C322.863,121.085,312.43,109.451,298.947,109.451z"/>
</g>
<path style="fill:#E5A900;" d="M298.947,109.451h-30.345c13.484,0,23.917,11.633,22.25,24.809l-20.586,162.695
	c-2.186,15.354-14.318,27.193-29.438,29.584c1.84,0.29,3.722,0.45,5.639,0.45h19.069c17.661,0,32.624-12.812,35.076-30.034
	l20.586-162.695C322.863,121.085,312.43,109.451,298.947,109.451z"/>
<path style="fill:#FECE00;" d="M494.857,350.208H17.143C7.676,350.208,0,357.884,0,367.351v18.054
	c0,9.468,7.676,17.143,17.143,17.143h477.714c9.468,0,17.143-7.676,17.143-17.143v-18.054
	C512,357.884,504.324,350.208,494.857,350.208z"/>
<path style="fill:#E5A900;" d="M494.857,402.549H17.143C7.676,402.549,0,394.873,0,385.405v-18.054c0-1.401,0.187-2.755,0.503-4.058
	c1.825,7.505,8.572,13.085,16.64,13.085h477.714c8.068,0,14.815-5.58,16.64-13.085c0.317,1.303,0.503,2.657,0.503,4.058v18.054
	C512,394.873,504.324,402.549,494.857,402.549z"/>
<g>
	<path style="fill:#FECE00;" d="M147.237,226.423c-29.884,10.51-51.693,32.202-62.362,62.029
		c-9.786-3.209-19.571-6.417-29.355-9.625c13.715-39.149,43.028-68.305,82.25-81.811
		C140.926,206.818,144.082,216.621,147.237,226.423z"/>
	<path style="fill:#FECE00;" d="M158.364,260.98c-18.902,6.983-31.907,19.919-38.992,38.784c-9.786-3.209-19.571-6.417-29.355-9.625
		c10.125-28.189,30.637-48.592,58.88-58.566C152.051,241.375,155.208,251.177,158.364,260.98z"/>
</g>
<g>
</g>
<g>
</g>
<g>
</g>
<g>
</g>
<g>
</g>
<g>
</g>
<g>
</g>
<g>
</g>
<g>
</g>
<g>
</g>
<g>
</g>
<g>
</g>
<g>
</g>
<g>
</g>
<g>
</g>
</svg>
